<?xml version="1.0" standalone="no"?>
<!DOCTYPE svg PUBLIC "-//W3C//DTD SVG 20010904//EN"
 "http://www.w3.org/TR/2001/REC-SVG-20010904/DTD/svg10.dtd">
<svg version="1.0" xmlns="http://www.w3.org/2000/svg"
 width="64.000000pt" height="64.000000pt" viewBox="0 0 64.000000 64.000000"
 preserveAspectRatio="xMidYMid meet">

<g transform="translate(0.000000,64.000000) scale(0.100000,-0.100000)"
fill="#000000" stroke="none">
<path d="M184 596 c-38 -17 -69 -56 -123 -156 -58 -107 -56 -137 17 -264 75
-131 82 -135 243 -137 156 -3 164 2 243 136 84 144 84 154 -6 307 -69 117 -90
128 -234 128 -69 -1 -120 -6 -140 -14z m269 -68 c34 -34 110 -178 110 -207 0
-33 -86 -184 -120 -211 -22 -17 -41 -20 -128 -20 -83 0 -107 3 -123 18 -27 22
-122 191 -122 214 0 22 83 173 113 206 19 20 29 22 134 22 105 0 116 -2 136
-22z"/>
<path d="M336 454 c-18 -18 -17 -22 37 -86 l39 -47 -41 -49 c-44 -52 -51 -79
-24 -89 12 -5 33 11 75 57 32 36 58 72 58 80 0 17 -90 129 -114 142 -9 5 -21
2 -30 -8z"/>
</g>
</svg>
