<?xml version="1.0" encoding="UTF-8"?>
<svg width="792px" height="216px" viewBox="0 0 792 216" version="1.1" xmlns="http://www.w3.org/2000/svg" xmlns:xlink="http://www.w3.org/1999/xlink">
    <!-- Generator: Sketch 61.2 (89653) - https://sketch.com -->
    <title>Group 3</title>
    <desc>Created with Sketch.</desc>
    <g id="Page-1" stroke="none" stroke-width="1" fill="none" fill-rule="evenodd">
        <g id="A4" transform="translate(-40.000000, -40.000000)" fill-rule="nonzero">
            <g id="Group-3" transform="translate(40.000000, 40.000000)">
                <g id="Group-2">
                    <g id="Group">
                        <polygon id="Rectangle-path" fill="#FFFFFF" points="0.668505648 0.804400448 199.685887 0.804400448 199.685887 199.895543 0.668505648 199.895543"></polygon>
                        <g transform="translate(15.063953, 17.439642)" fill="#231F20" id="Shape">
                            <polygon points="73.2925312 0.73841523 73.2925312 79.0150737 55.1848487 79.0150737 55.1848487 46.9218759 19.6379894 46.9218759 19.6379894 79.0150737 1.53030686 79.0150737 1.53030686 0.73841523 19.6379894 0.73841523 19.6379894 31.603243 55.1848487 31.603243 55.1848487 0.73841523"></polygon>
                            <path d="M143.38117,62.2405088 L107.052066,62.2405088 L100.120963,79.0150737 L81.5652886,79.0150737 L116.441321,0.73841523 L134.326168,0.73841523 L169.313619,79.0150737 L150.309953,79.0150737 L143.38117,62.2405088 Z M137.680303,48.4869447 L125.273488,18.5184323 L112.864352,48.4869447 L137.680303,48.4869447 Z"></path>
                            <path d="M0.0215267468,159.537165 L6.17038599,145.895059 C12.7649157,150.704047 22.602162,154.059424 31.9914167,154.059424 C42.722325,154.059424 47.0815389,150.481129 47.0815389,145.674464 C47.0815389,131.024584 1.58601566,141.088394 1.58601566,112.016197 C1.58601566,98.7084685 12.316924,87.6368842 34.5633064,87.6368842 C44.4005527,87.6368842 54.4606343,89.9844873 61.7259908,94.5705568 L56.1365408,108.324121 C48.8711843,104.188531 41.3829925,102.175305 34.4518888,102.175305 C23.7209805,102.175305 19.5846018,106.199436 19.5846018,111.122204 C19.5846018,125.546843 65.080125,115.596814 65.080125,144.334635 C65.080125,157.419445 54.2377991,168.600167 31.8823202,168.600167 C19.4731841,168.595523 6.95263045,164.903446 0.0215267468,159.537165 Z"></path>
                            <polygon points="167.821087 88.9767131 167.821087 167.253372 149.713404 167.253372 149.713404 135.160174 100.239344 135.160174 100.239344 167.253372 82.1316615 167.253372 82.1316615 88.9767131 100.239344 88.9767131 100.239344 119.839219 149.713404 119.839219 149.713404 88.9767131"></polygon>
                        </g>
                        <path d="M115.182595,159.561353 L115.182595,190.909169 C115.182595,204.374798 126.094557,215.290804 139.555196,215.290804 C153.015836,215.290804 163.927798,204.374798 163.927798,190.909169 L163.927798,159.561353 L115.182595,159.561353 Z" id="Shape" fill="#FFFFFF"></path>
                    </g>
                    <path d="M255.11806,156 L255.11806,122.219346 L263.619562,116.13624 L288.4751,156 L311.318832,156 L277.961792,103.258174 L311.059244,61.3882834 L288.734688,61.3882834 L263.035489,93.5510899 L255.11806,104.68188 L255.11806,61.3882834 L235,61.3882834 L235,156 L255.11806,156 Z M369.959731,156 L369.959731,119.695504 L380.66773,119.695504 L403.316771,156 L425.641328,156 C421.314863,149.787466 412.012965,136.046549 397.735632,114.777248 C403.360036,112.31812 407.708133,108.92064 410.779923,104.584809 C413.851712,100.248978 415.387607,95.2983651 415.387607,89.73297 C415.387607,80.1984559 412.294185,73.090713 406.107341,68.4097411 C399.920497,63.7287693 390.380643,61.3882834 377.487779,61.3882834 L377.487779,61.3882834 L349.841671,61.3882834 L349.841671,156 L369.959731,156 Z M376.449427,103.387602 L369.959731,103.387602 L369.959731,77.8256131 L376.060046,77.8256131 C382.549742,77.8256131 387.341302,78.7747502 390.434724,80.6730245 C393.528146,82.5712988 395.074857,85.763851 395.074857,90.2506812 C395.074857,94.780654 393.560594,98.102634 390.532069,100.216621 C387.503544,102.330609 382.80933,103.387602 376.449427,103.387602 L376.449427,103.387602 Z M473.898712,156 L480.77779,133.479564 L515.367873,133.479564 L522.246952,156 L543.922538,156 L510.30591,61 L485.70996,61 L452.223125,156 L473.898712,156 Z M510.565498,116.653951 L485.839754,116.653951 C492.589038,94.8669391 496.677547,81.212307 498.10528,75.6900545 C498.451397,77.243188 499.024654,79.3571753 499.82505,82.0320163 C500.625446,84.7068574 504.205595,96.2475023 510.565498,116.653951 L510.565498,116.653951 Z M602.238952,156 L602.238952,118.595368 L634.427847,118.595368 L634.427847,102.222752 L602.238952,102.222752 L602.238952,77.8256131 L636.829035,77.8256131 L636.829035,61.3882834 L582.445378,61.3882834 L582.445378,156 L602.238952,156 Z M718.573254,156 L718.573254,78.0844687 L744.337349,78.0844687 L744.337349,61.3882834 L672.691099,61.3882834 L672.691099,78.0844687 L698.455194,78.0844687 L698.455194,156 L718.573254,156 Z" id="KRAFT" fill="#FFFFFF"></path>
                    <polygon id="Rectangle-path" fill="#F5921D" points="773 137 792 137 792 156 773 156"></polygon>
                </g>
            </g>
        </g>
    </g>
</svg>